<?xml version="1.0" encoding="UTF-8"?>
<!DOCTYPE svg PUBLIC "-//W3C//DTD SVG 1.1//EN" "http://www.w3.org/Graphics/SVG/1.1/DTD/svg11.dtd">
<svg xmlns="http://www.w3.org/2000/svg" version="1.1" width="5000px" height="5000px" style="shape-rendering:geometricPrecision; text-rendering:geometricPrecision; image-rendering:optimizeQuality; fill-rule:evenodd; clip-rule:evenodd" xmlns:xlink="http://www.w3.org/1999/xlink">
<g><path style="opacity:0.986" fill="#eb008b" d="M 1267.5,306.5 C 1308.83,306.333 1350.17,306.5 1391.5,307C 1401.35,308.516 1407.85,314.016 1411,323.5C 1411.67,367.167 1411.67,410.833 1411,454.5C 1407.97,463.533 1401.8,469.033 1392.5,471C 1350.5,471.667 1308.5,471.667 1266.5,471C 1255.1,468.271 1248.6,461.104 1247,449.5C 1246.33,409.167 1246.33,368.833 1247,328.5C 1248.89,316.443 1255.73,309.11 1267.5,306.5 Z"/></g>
<g><path style="opacity:0.991" fill="#eb008b" d="M 2134.5,359.5 C 2186.83,359.333 2239.17,359.5 2291.5,360C 2304.12,362.621 2312.29,370.121 2316,382.5C 2316.67,436.5 2316.67,490.5 2316,544.5C 2312.17,557.334 2303.67,564.834 2290.5,567C 2238.5,567.667 2186.5,567.667 2134.5,567C 2120.65,563.821 2112.15,555.321 2109,541.5C 2108.33,489.5 2108.33,437.5 2109,385.5C 2112.35,371.653 2120.85,362.986 2134.5,359.5 Z"/></g>
<g><path style="opacity:0.99" fill="#eb008b" d="M 2758.5,430.5 C 2798.83,430.333 2839.17,430.5 2879.5,431C 2887.93,433.095 2893.43,438.261 2896,446.5C 2896.67,487.5 2896.67,528.5 2896,569.5C 2893.31,578.186 2887.48,583.353 2878.5,585C 2838.83,585.667 2799.17,585.667 2759.5,585C 2750.33,582.5 2744.5,576.667 2742,567.5C 2741.33,527.833 2741.33,488.167 2742,448.5C 2744.58,439.753 2750.08,433.753 2758.5,430.5 Z"/></g>
<g><path style="opacity:0.998" fill="#eb008b" d="M 716.5,554.5 C 827.501,554.333 938.501,554.5 1049.5,555C 1080.35,562.516 1097.85,582.016 1102,613.5C 1102.33,708.167 1102.67,802.833 1103,897.5C 1105.49,933.013 1118.83,963.68 1143,989.5C 1261.86,1108.69 1381.03,1227.53 1500.5,1346C 1527.32,1367.73 1557.98,1380.73 1592.5,1385C 1605.45,1386.61 1618.45,1387.61 1631.5,1388C 1919.5,1388.67 2207.5,1388.67 2495.5,1388C 2545.37,1386.89 2593.04,1376.23 2638.5,1356C 2709.87,1318.84 2747.04,1259.67 2750,1178.5C 2750.91,1138.15 2750.57,1097.82 2749,1057.5C 2747.23,1031.63 2737.56,1009.3 2720,990.5C 2694.14,964.305 2667.97,938.472 2641.5,913C 2627.13,900.646 2610.46,893.313 2591.5,891C 2532.5,890.667 2473.5,890.333 2414.5,890C 2396.1,887.597 2384.6,877.43 2380,859.5C 2379.33,791.5 2379.33,723.5 2380,655.5C 2384.03,638.803 2394.53,628.969 2411.5,626C 2478.17,625.333 2544.83,625.333 2611.5,626C 2629.78,629.944 2640.61,641.111 2644,659.5C 2644.33,718.167 2644.67,776.833 2645,835.5C 2647.12,856.734 2655.45,875.067 2670,890.5C 2695.83,916.333 2721.67,942.167 2747.5,968C 2767.59,985.036 2790.92,994.036 2817.5,995C 2915.17,995.333 3012.83,995.667 3110.5,996C 3138.15,998.411 3156.98,1012.58 3167,1038.5C 3167.79,1041.47 3168.46,1044.47 3169,1047.5C 3156.12,1117.83 3179.28,1171.99 3238.5,1210C 3257.67,1221.75 3278,1231.08 3299.5,1238C 3693.26,1299.45 4028.76,1471.28 4306,1753.5C 4460.22,1912.47 4580.55,2094.47 4667,2299.5C 4788.71,2597.89 4825.71,2906.56 4778,3225.5C 4720.86,3576.41 4572.2,3881.08 4332,4139.5C 4113.42,4369.47 3851.25,4530.3 3545.5,4622C 3219.69,4715.26 2893.69,4715.93 2567.5,4624C 2257.83,4531.84 1993.33,4368.34 1774,4133.5C 1737.87,4086.68 1694.37,4048.52 1643.5,4019C 1593.17,3992.33 1539.5,3978 1482.5,3976C 1367.5,3975.67 1252.5,3975.33 1137.5,3975C 1086.37,3965.54 1057.54,3935.04 1051,3883.5C 1050.33,3721.17 1050.33,3558.83 1051,3396.5C 1056.1,3351.4 1080.26,3321.9 1123.5,3308C 1129.08,3306.48 1134.74,3305.48 1140.5,3305C 1283.83,3304.67 1427.17,3304.33 1570.5,3304C 1670.8,3295.8 1739.97,3245.3 1778,3152.5C 1809.35,3062.89 1803.35,2975.89 1760,2891.5C 1720.16,2821.72 1659.99,2783.55 1579.5,2777C 1406.5,2776.67 1233.5,2776.33 1060.5,2776C 1024,2768.83 1002.17,2747 995,2710.5C 994.667,2592.5 994.333,2474.5 994,2356.5C 994.335,2331.18 989.668,2306.84 980,2283.5C 974.326,2272.81 967.659,2262.81 960,2253.5C 949.167,2242.67 938.333,2231.83 927.5,2221C 903.305,2197.71 874.305,2186.37 840.5,2187C 771.5,2186.67 702.5,2186.33 633.5,2186C 609.729,2179.56 596.896,2164.06 595,2139.5C 594.333,2061.17 594.333,1982.83 595,1904.5C 596.627,1879.87 609.46,1864.71 633.5,1859C 717.167,1858.33 800.833,1858.33 884.5,1859C 906.081,1864.25 919.247,1877.75 924,1899.5C 924.333,1971.83 924.667,2044.17 925,2116.5C 926.167,2134.84 931.5,2151.84 941,2167.5C 957.02,2188.86 975.187,2208.36 995.5,2226C 1022.01,2245.95 1052.01,2255.95 1085.5,2256C 1273.83,2256.33 1462.17,2256.67 1650.5,2257C 1684.79,2258.63 1703.29,2276.46 1706,2310.5C 1706.04,2332.22 1706.71,2353.88 1708,2375.5C 1712.17,2389 1721,2397.83 1734.5,2402C 1804.13,2403.65 1873.8,2403.98 1943.5,2403C 1961.87,2398.63 1972.71,2387.13 1976,2368.5C 1976.67,2302.17 1976.67,2235.83 1976,2169.5C 1972.84,2151.34 1962.34,2139.84 1944.5,2135C 1914.13,2134.96 1883.79,2134.29 1853.5,2133C 1832.28,2126.35 1819.44,2112.19 1815,2090.5C 1814.67,2027.5 1814.33,1964.5 1814,1901.5C 1810.33,1881.66 1799.5,1867.16 1781.5,1858C 1776.36,1855.73 1771.02,1854.06 1765.5,1853C 1704.14,1852.97 1642.81,1852.3 1581.5,1851C 1547.49,1842.65 1522.65,1822.82 1507,1791.5C 1504.56,1786.07 1502.89,1780.4 1502,1774.5C 1501.67,1690.83 1501.33,1607.17 1501,1523.5C 1501.39,1492.24 1496.39,1461.91 1486,1432.5C 1478.6,1415.36 1468.94,1399.69 1457,1385.5C 1338.81,1266.97 1220.31,1148.81 1101.5,1031C 1075.24,1007.01 1044.24,993.678 1008.5,991C 913.5,990.667 818.5,990.333 723.5,990C 694.623,986.123 675.789,970.29 667,942.5C 666.042,937.877 665.375,933.21 665,928.5C 664.333,823.5 664.333,718.5 665,613.5C 668.53,581.81 685.696,562.144 716.5,554.5 Z M 2797.5,1387.5 C 2858.17,1387.33 2918.83,1387.5 2979.5,1388C 2995.99,1391.15 3005.82,1400.99 3009,1417.5C 3009.67,1477.83 3009.67,1538.17 3009,1598.5C 3005.95,1614.55 2996.45,1624.38 2980.5,1628C 2919.17,1628.67 2857.83,1628.67 2796.5,1628C 2780.11,1624.27 2770.61,1614.11 2768,1597.5C 2767.33,1537.83 2767.33,1478.17 2768,1418.5C 2771.26,1401.75 2781.09,1391.41 2797.5,1387.5 Z M 1871.5,1528.5 C 1939.17,1528.33 2006.83,1528.5 2074.5,1529C 2093.58,1531.46 2105.75,1541.96 2111,1560.5C 2111.67,1631.5 2111.67,1702.5 2111,1773.5C 2106.61,1789.56 2096.44,1800.06 2080.5,1805C 2009.17,1805.67 1937.83,1805.67 1866.5,1805C 1850,1800.5 1839.5,1790 1835,1773.5C 1834.33,1702.83 1834.33,1632.17 1835,1561.5C 1840.25,1542.8 1852.42,1531.8 1871.5,1528.5 Z M 2174.5,1856.5 C 2219.17,1856.33 2263.83,1856.5 2308.5,1857C 2317.84,1860.34 2323.68,1866.84 2326,1876.5C 2326.67,1919.83 2326.67,1963.17 2326,2006.5C 2322.24,2018.6 2314.08,2025.1 2301.5,2026C 2261.17,2026.67 2220.83,2026.67 2180.5,2026C 2168.56,2024.96 2160.72,2018.79 2157,2007.5C 2156.33,1963.17 2156.33,1918.83 2157,1874.5C 2159.68,1865.32 2165.52,1859.32 2174.5,1856.5 Z M 3029.5,2000.5 C 3292.12,1993.92 3521.12,2077.09 3716.5,2250C 3907.74,2427.68 4012.24,2647.51 4030,2909.5C 4040.02,3175.5 3957.35,3407.5 3782,3605.5C 3600.09,3800.35 3375.26,3905.18 3107.5,3920C 2874,3927.05 2664.66,3860.38 2479.5,3720C 2302.7,3581.02 2186.87,3401.85 2132,3182.5C 2082.4,2964.26 2104.4,2753.59 2198,2550.5C 2298.22,2344.61 2451.39,2191.78 2657.5,2092C 2775.54,2036.99 2899.54,2006.49 3029.5,2000.5 Z M 1652.5,3377.5 C 1739.17,3377.33 1825.83,3377.5 1912.5,3378C 1934.55,3383.05 1948.38,3396.55 1954,3418.5C 1954.67,3505.5 1954.67,3592.5 1954,3679.5C 1948.14,3704.69 1932.3,3718.53 1906.5,3721C 1823.83,3721.67 1741.17,3721.67 1658.5,3721C 1633.03,3718.19 1617.2,3704.35 1611,3679.5C 1610.33,3592.83 1610.33,3506.17 1611,3419.5C 1616.35,3396.99 1630.18,3382.99 1652.5,3377.5 Z"/></g>
<g><path style="opacity:0.997" fill="#eb008b" d="M 1652.5,724.5 C 1771.17,724.333 1889.83,724.5 2008.5,725C 2045.52,730.423 2067.02,751.589 2073,788.5C 2073.67,907.833 2073.67,1027.17 2073,1146.5C 2067.18,1180.65 2047.35,1201.48 2013.5,1209C 1891.17,1209.67 1768.83,1209.67 1646.5,1209C 1614.33,1202.17 1594.83,1182.67 1588,1150.5C 1587.33,1028.5 1587.33,906.5 1588,784.5C 1595.94,749.721 1617.44,729.721 1652.5,724.5 Z"/></g>
<g><path style="opacity:0.99" fill="#eb008b" d="M 3244.5,798.5 C 3282.83,798.333 3321.17,798.5 3359.5,799C 3369.36,800.531 3375.86,806.031 3379,815.5C 3379.67,856.167 3379.67,896.833 3379,937.5C 3376.5,945.333 3371.33,950.5 3363.5,953C 3322.5,953.667 3281.5,953.667 3240.5,953C 3232.23,950.393 3227.06,944.893 3225,936.5C 3224.33,896.167 3224.33,855.833 3225,815.5C 3228.31,806.019 3234.81,800.353 3244.5,798.5 Z"/></g>
<g><path style="opacity:0.988" fill="#eb008b" d="M 236.5,974.5 C 277.501,974.333 318.501,974.5 359.5,975C 370.548,977.048 377.382,983.548 380,994.5C 380.667,1036.5 380.667,1078.5 380,1120.5C 377.058,1130.44 370.558,1136.61 360.5,1139C 318.5,1139.67 276.5,1139.67 234.5,1139C 224.991,1136.16 218.825,1129.99 216,1120.5C 215.333,1078.17 215.333,1035.83 216,993.5C 219.208,983.12 226.042,976.787 236.5,974.5 Z"/></g>
<g><path style="opacity:0.991" fill="#eb008b" d="M 1031.5,1468.5 C 1105.17,1468.33 1178.83,1468.5 1252.5,1469C 1275,1472.83 1288.17,1486 1292,1508.5C 1292.67,1581.83 1292.67,1655.17 1292,1728.5C 1290.13,1745.71 1281.3,1757.87 1265.5,1765C 1261.94,1766.41 1258.28,1767.41 1254.5,1768C 1179.5,1768.67 1104.5,1768.67 1029.5,1768C 1007.92,1764 995.42,1751.17 992,1729.5C 991.333,1655.5 991.333,1581.5 992,1507.5C 996.468,1485.53 1009.63,1472.53 1031.5,1468.5 Z"/></g>
<g><path style="opacity:0.99" fill="#eb008b" d="M 335.5,1524.5 C 390.168,1524.33 444.834,1524.5 499.5,1525C 512.334,1528.83 519.834,1537.33 522,1550.5C 522.667,1602.5 522.667,1654.5 522,1706.5C 519.167,1721.33 510.333,1730.17 495.5,1733C 443.5,1733.67 391.5,1733.67 339.5,1733C 324.667,1730.17 315.833,1721.33 313,1706.5C 312.333,1654.5 312.333,1602.5 313,1550.5C 315.357,1537.31 322.857,1528.65 335.5,1524.5 Z"/></g>
<g><path style="opacity:0.986" fill="#eb008b" d="M 218.5,2463.5 C 253.168,2463.33 287.835,2463.5 322.5,2464C 331.069,2465.57 336.903,2470.41 340,2478.5C 340.667,2515.83 340.667,2553.17 340,2590.5C 337.406,2597.43 332.573,2601.93 325.5,2604C 288.833,2604.67 252.167,2604.67 215.5,2604C 206.328,2601.16 201.161,2595 200,2585.5C 199.333,2551.17 199.333,2516.83 200,2482.5C 201.679,2471.66 207.846,2465.32 218.5,2463.5 Z"/></g>
<g><path style="opacity:0.992" fill="#eb008b" d="M 426.5,2666.5 C 477.501,2666.33 528.501,2666.5 579.5,2667C 591.898,2669.73 599.731,2677.23 603,2689.5C 603.333,2733.83 603.667,2778.17 604,2822.5C 605.141,2838.94 611.141,2853.27 622,2865.5C 639.5,2883 657,2900.5 674.5,2918C 688.869,2930.18 705.535,2936.84 724.5,2938C 799.5,2938.33 874.5,2938.67 949.5,2939C 973.972,2941.81 988.472,2955.31 993,2979.5C 993.667,3058.17 993.667,3136.83 993,3215.5C 989.173,3237.99 976.006,3251.16 953.5,3255C 874.833,3255.67 796.167,3255.67 717.5,3255C 696.008,3251.18 682.508,3238.68 677,3217.5C 676.667,3144.83 676.333,3072.17 676,2999.5C 676.633,2977.67 670.633,2958.01 658,2940.5C 639.167,2921.67 620.333,2902.83 601.5,2884C 590.086,2873.96 576.753,2868.3 561.5,2867C 516.5,2866.67 471.5,2866.33 426.5,2866C 414.776,2863.28 407.276,2856.11 404,2844.5C 403.333,2792.17 403.333,2739.83 404,2687.5C 407.881,2676.45 415.381,2669.45 426.5,2666.5 Z"/></g>
<g><path style="opacity:0.995" fill="#eb008b" d="M 413.5,3378.5 C 467.501,3378.33 521.501,3378.5 575.5,3379C 586.573,3382.41 594.073,3389.57 598,3400.5C 598.667,3455.17 598.667,3509.83 598,3564.5C 594.499,3575.84 586.999,3583 575.5,3586C 521.167,3586.67 466.833,3586.67 412.5,3586C 399.666,3582.17 392.166,3573.67 390,3560.5C 389.333,3508.5 389.333,3456.5 390,3404.5C 392.463,3390.88 400.296,3382.21 413.5,3378.5 Z"/></g>
</svg>
