<?xml version="1.0" encoding="UTF-8"?>
<!DOCTYPE svg PUBLIC "-//W3C//DTD SVG 1.1//EN" "http://www.w3.org/Graphics/SVG/1.1/DTD/svg11.dtd">
<svg xmlns="http://www.w3.org/2000/svg" version="1.1" width="39px" height="49px" style="shape-rendering:geometricPrecision; text-rendering:geometricPrecision; image-rendering:optimizeQuality; fill-rule:evenodd; clip-rule:evenodd" xmlns:xlink="http://www.w3.org/1999/xlink">
<g><path style="opacity:1" fill="#6261a9" d="M 8.5,-0.5 C 10.8333,-0.5 13.1667,-0.5 15.5,-0.5C 17.1271,1.62976 18.9604,3.62976 21,5.5C 21.6917,6.43677 21.525,7.10343 20.5,7.5C 14.4234,5.25912 8.09011,3.59246 1.5,2.5C 3.50776,0.917378 5.8411,-0.0826217 8.5,-0.5 Z"/></g>
<g><path style="opacity:1" fill="#56539f" d="M -0.5,1.5 C 0.166667,1.83333 0.833333,2.16667 1.5,2.5C 4.68796,4.69021 7.85463,7.02355 11,9.5C 12.4123,13.728 13.2456,18.0613 13.5,22.5C 13.5,23.1667 13.8333,23.5 14.5,23.5C 14.8333,26.1667 15.1667,28.8333 15.5,31.5C 13.7162,31.1075 12.0495,30.4408 10.5,29.5C 10.7373,28.209 10.404,27.209 9.5,26.5C 9.06795,25.2905 8.40128,24.2905 7.5,23.5C 7.5,23.1667 7.5,22.8333 7.5,22.5C 5.20418,15.9273 2.53751,9.59392 -0.5,3.5C -0.5,2.83333 -0.5,2.16667 -0.5,1.5 Z"/></g>
<g><path style="opacity:1" fill="#7170b1" d="M 20.5,7.5 C 21.7366,13.5971 19.4033,16.4305 13.5,16C 15.6976,12.9772 18.031,10.1438 20.5,7.5 Z"/></g>
<g><path style="opacity:0.565" fill="#ffebaa" d="M 19.5,19.5 C 18.1667,19.5 16.8333,19.5 15.5,19.5C 15.5,20.8333 15.5,22.1667 15.5,23.5C 15.1667,23.5 14.8333,23.5 14.5,23.5C 13.8333,23.5 13.5,23.1667 13.5,22.5C 14.4345,21.4324 14.7678,20.099 14.5,18.5C 16.4147,18.2155 18.0813,18.5489 19.5,19.5 Z"/></g>
<g><path style="opacity:1" fill="#ffd44c" d="M 19.5,19.5 C 22.7693,19.8844 25.6026,21.2177 28,23.5C 30.7744,29.4652 28.941,32.2986 22.5,32C 23.5046,26.8089 21.1713,23.9755 15.5,23.5C 15.5,22.1667 15.5,20.8333 15.5,19.5C 16.8333,19.5 18.1667,19.5 19.5,19.5 Z"/></g>
<g><path style="opacity:1" fill="#ed4841" d="M 7.5,22.5 C 7.5,22.8333 7.5,23.1667 7.5,23.5C 7.43255,24.9587 7.76589,26.2921 8.5,27.5C 8.83333,28.5 9.5,29.1667 10.5,29.5C 12.0495,30.4408 13.7162,31.1075 15.5,31.5C 18.7794,32.0306 20.1128,34.0306 19.5,37.5C 19.5,38.1667 19.1667,38.5 18.5,38.5C 18.1667,38.5 17.8333,38.5 17.5,38.5C 16.3478,37.375 15.3478,37.375 14.5,38.5C 9.3502,36.8439 5.18353,33.8439 2,29.5C 0.672371,24.6624 2.5057,22.329 7.5,22.5 Z"/></g>
<g><path style="opacity:0.063" fill="#e4cfdb" d="M 9.5,26.5 C 10.404,27.209 10.7373,28.209 10.5,29.5C 9.5,29.1667 8.83333,28.5 8.5,27.5C 9.16667,27.5 9.5,27.1667 9.5,26.5 Z"/></g>
<g><path style="opacity:0.125" fill="#fbe0e0" d="M 19.5,37.5 C 20.0431,37.56 20.3764,37.8933 20.5,38.5C 19.7435,39.7733 19.0768,39.7733 18.5,38.5C 19.1667,38.5 19.5,38.1667 19.5,37.5 Z"/></g>
<g><path style="opacity:0.376" fill="#aaa9cf" d="M 17.5,38.5 C 18.0508,41.8067 18.3841,45.1401 18.5,48.5C 18.1667,48.5 17.8333,48.5 17.5,48.5C 16.5075,45.1771 15.5075,41.8437 14.5,38.5C 15.3478,37.375 16.3478,37.375 17.5,38.5 Z"/></g>
</svg>
